<svg width="480" height="320" viewBox="0 0 480 320" fill="none" xmlns="http://www.w3.org/2000/svg">
  <rect width="480" height="320" rx="28" fill="#0A111F"/>
  <rect x="32" y="32" width="416" height="40" rx="16" fill="#141E36"/>
  <rect x="52" y="48" width="132" height="12" rx="6" fill="#4C9BFF"/>
  <rect x="32" y="88" width="416" height="200" rx="20" fill="#10192C"/>
  <rect x="60" y="120" width="56" height="120" rx="12" fill="#1F304F"/>
  <rect x="140" y="120" width="64" height="120" rx="12" fill="#1F304F"/>
  <rect x="220" y="120" width="96" height="120" rx="12" fill="#1F304F"/>
  <rect x="332" y="120" width="72" height="120" rx="12" fill="#1F304F"/>
  <rect x="60" y="112" width="56" height="12" rx="6" fill="#5BE6B4"/>
  <rect x="140" y="112" width="64" height="12" rx="6" fill="#AA7EFF"/>
  <rect x="220" y="112" width="96" height="12" rx="6" fill="#4C9BFF"/>
  <rect x="332" y="112" width="72" height="12" rx="6" fill="#5BE6B4"/>
  <path d="M88 120V96" stroke="#5BE6B4" stroke-width="4" stroke-linecap="round"/>
  <path d="M172 120V96" stroke="#AA7EFF" stroke-width="4" stroke-linecap="round"/>
  <path d="M268 120V96" stroke="#4C9BFF" stroke-width="4" stroke-linecap="round"/>
  <path d="M368 120V96" stroke="#5BE6B4" stroke-width="4" stroke-linecap="round"/>
  <path d="M117 180H156" stroke="#4C9BFF" stroke-width="6" stroke-linecap="round"/>
  <path d="M196 180H236" stroke="#AA7EFF" stroke-width="6" stroke-linecap="round"/>
  <path d="M276 180H320" stroke="#5BE6B4" stroke-width="6" stroke-linecap="round"/>
  <path d="M356 180H388" stroke="#C9D1EA" stroke-width="6" stroke-linecap="round"/>
</svg>
