<svg width="480" height="320" viewBox="0 0 480 320" fill="none" xmlns="http://www.w3.org/2000/svg">
  <rect width="480" height="320" rx="28" fill="#0B1322"/>
  <rect x="32" y="32" width="416" height="48" rx="16" fill="#141E36"/>
  <rect x="52" y="48" width="132" height="12" rx="6" fill="#4C9BFF"/>
  <rect x="32" y="96" width="416" height="200" rx="20" fill="#10192C"/>
  <rect x="52" y="120" width="132" height="16" rx="8" fill="#1F2F57"/>
  <rect x="52" y="150" width="132" height="16" rx="8" fill="#1F2F57"/>
  <rect x="52" y="180" width="132" height="16" rx="8" fill="#1F2F57"/>
  <rect x="52" y="210" width="132" height="16" rx="8" fill="#1F2F57"/>
  <rect x="52" y="240" width="132" height="16" rx="8" fill="#1F2F57"/>
  <rect x="204" y="120" width="224" height="32" rx="10" fill="#141E36"/>
  <rect x="204" y="168" width="224" height="32" rx="10" fill="#141E36"/>
  <rect x="204" y="216" width="224" height="32" rx="10" fill="#141E36"/>
  <rect x="224" y="128" width="96" height="12" rx="6" fill="#AA7EFF"/>
  <rect x="224" y="176" width="112" height="12" rx="6" fill="#5BE6B4"/>
  <rect x="224" y="224" width="84" height="12" rx="6" fill="#4C9BFF"/>
</svg>
