<svg width="480" height="320" viewBox="0 0 480 320" fill="none" xmlns="http://www.w3.org/2000/svg">
  <rect width="480" height="320" rx="28" fill="#0E1528"/>
  <rect x="32" y="32" width="416" height="40" rx="16" fill="#151F3B"/>
  <rect x="52" y="48" width="96" height="12" rx="6" fill="#4C9BFF"/>
  <rect x="32" y="88" width="256" height="200" rx="20" fill="#141F39"/>
  <rect x="56" y="112" width="92" height="12" rx="6" fill="#22345C"/>
  <rect x="56" y="132" width="116" height="12" rx="6" fill="#22345C"/>
  <rect x="56" y="152" width="144" height="12" rx="6" fill="#22345C"/>
  <rect x="56" y="200" width="184" height="64" rx="16" fill="#192A4D"/>
  <rect x="320" y="88" width="128" height="88" rx="18" fill="#141F39"/>
  <path d="M384 120L352 152H416L384 120Z" fill="#5BE6B4"/>
  <path d="M320 200C320 177.909 337.909 160 360 160C382.091 160 400 177.909 400 200C400 222.091 382.091 240 360 240C337.909 240 320 222.091 320 200Z" fill="#15223F"/>
  <path d="M360 168C373.255 168 384 178.745 384 192C384 205.255 373.255 216 360 216" stroke="#AA7EFF" stroke-width="10" stroke-linecap="round"/>
  <path d="M360 184C365.523 184 370 188.477 370 194C370 199.523 365.523 204 360 204" stroke="#5BE6B4" stroke-width="6" stroke-linecap="round"/>
  <rect x="320" y="248" width="128" height="40" rx="16" fill="#151F3B"/>
  <rect x="336" y="262" width="96" height="12" rx="6" fill="#23345D"/>
</svg>
