<svg width="480" height="320" viewBox="0 0 480 320" fill="none" xmlns="http://www.w3.org/2000/svg">
  <rect width="480" height="320" rx="28" fill="#0E1528"/>
  <rect x="32" y="32" width="416" height="40" rx="16" fill="#151F3B"/>
  <rect x="52" y="48" width="96" height="12" rx="6" fill="#4C9BFF"/>
  <rect x="32" y="88" width="296" height="200" rx="20" fill="#141F39"/>
  <rect x="56" y="112" width="128" height="12" rx="6" fill="#22345C"/>
  <rect x="56" y="132" width="104" height="12" rx="6" fill="#22345C"/>
  <rect x="56" y="152" width="88" height="12" rx="6" fill="#22345C"/>
  <rect x="56" y="176" width="240" height="80" rx="16" fill="#192A4D"/>
  <rect x="344" y="88" width="104" height="200" rx="18" fill="#151F3B"/>
  <rect x="360" y="112" width="72" height="12" rx="6" fill="#23345D"/>
  <rect x="360" y="132" width="72" height="12" rx="6" fill="#23345D"/>
  <rect x="360" y="152" width="72" height="12" rx="6" fill="#23345D"/>
  <rect x="360" y="200" width="72" height="12" rx="6" fill="#23345D"/>
  <rect x="360" y="220" width="72" height="12" rx="6" fill="#23345D"/>
  <g opacity="0.7">
    <rect x="120" y="176" width="76" height="76" rx="12" fill="#233863" stroke="#4C9BFF" stroke-dasharray="6 6"/>
    <rect x="256" y="176" width="76" height="76" rx="12" fill="#233863" stroke="#5BE6B4" stroke-dasharray="6 6"/>
  </g>
  <rect x="344" y="224" width="104" height="32" rx="16" fill="#18294A"/>
  <rect x="360" y="236" width="72" height="12" rx="6" fill="#23345D"/>
</svg>
