<svg width="480" height="320" viewBox="0 0 480 320" fill="none" xmlns="http://www.w3.org/2000/svg">
  <rect width="480" height="320" rx="28" fill="#0A111F"/>
  <rect x="32" y="32" width="416" height="40" rx="16" fill="#141E36"/>
  <rect x="52" y="48" width="168" height="12" rx="6" fill="#4C9BFF"/>
  <rect x="32" y="88" width="416" height="200" rx="20" fill="#111A2F"/>
  <rect x="52" y="112" width="184" height="120" rx="14" fill="#182642"/>
  <rect x="256" y="112" width="160" height="72" rx="18" fill="#182642"/>
  <rect x="256" y="200" width="160" height="72" rx="18" fill="#182642"/>
  <rect x="72" y="132" width="144" height="16" rx="8" fill="#22345C"/>
  <rect x="72" y="160" width="144" height="16" rx="8" fill="#22345C"/>
  <rect x="72" y="188" width="144" height="16" rx="8" fill="#22345C"/>
  <rect x="72" y="216" width="144" height="16" rx="8" fill="#22345C"/>
  <rect x="272" y="132" width="128" height="12" rx="6" fill="#5BE6B4"/>
  <rect x="272" y="156" width="96" height="12" rx="6" fill="#AA7EFF"/>
  <rect x="272" y="220" width="112" height="12" rx="6" fill="#4C9BFF"/>
  <rect x="272" y="244" width="96" height="12" rx="6" fill="#5BE6B4"/>
  <rect x="52" y="248" width="184" height="24" rx="12" fill="#182642"/>
  <rect x="76" y="256" width="136" height="8" rx="4" fill="#AA7EFF"/>
</svg>
