<svg width="640" height="480" viewBox="0 0 640 480" fill="none" xmlns="http://www.w3.org/2000/svg">
  <rect width="640" height="480" rx="32" fill="#0D1326"/>
  <rect x="32" y="32" width="240" height="144" rx="18" fill="#152346"/>
  <rect x="48" y="52" width="96" height="16" rx="8" fill="#4C9BFF"/>
  <rect x="48" y="84" width="176" height="12" rx="6" fill="#1F2F57"/>
  <rect x="48" y="102" width="176" height="12" rx="6" fill="#1F2F57"/>
  <rect x="48" y="120" width="116" height="12" rx="6" fill="#1F2F57"/>
  <rect x="32" y="200" width="240" height="248" rx="18" fill="#111B34"/>
  <rect x="56" y="224" width="64" height="16" rx="8" fill="#4C9BFF" opacity="0.8"/>
  <rect x="56" y="256" width="176" height="12" rx="6" fill="#1E2B4D"/>
  <rect x="56" y="276" width="176" height="12" rx="6" fill="#1E2B4D"/>
  <rect x="56" y="296" width="132" height="12" rx="6" fill="#1E2B4D"/>
  <rect x="296" y="32" width="312" height="416" rx="24" fill="#101C33"/>
  <rect x="320" y="56" width="112" height="16" rx="8" fill="#4C9BFF"/>
  <rect x="320" y="88" width="264" height="154" rx="18" fill="#151F3B"/>
  <rect x="344" y="107" width="96" height="12" rx="6" fill="#23345D"/>
  <rect x="344" y="127" width="120" height="12" rx="6" fill="#23345D"/>
  <rect x="344" y="147" width="152" height="12" rx="6" fill="#23345D"/>
  <rect x="320" y="264" width="120" height="152" rx="16" fill="#162544"/>
  <rect x="456" y="264" width="128" height="152" rx="16" fill="#162544"/>
  <rect x="344" y="284" width="72" height="12" rx="6" fill="#243B6E"/>
  <rect x="344" y="308" width="96" height="12" rx="6" fill="#243B6E"/>
  <rect x="344" y="332" width="88" height="12" rx="6" fill="#243B6E"/>
  <rect x="480" y="284" width="72" height="12" rx="6" fill="#233B6A"/>
  <rect x="480" y="308" width="96" height="12" rx="6" fill="#233B6A"/>
  <rect x="480" y="332" width="64" height="12" rx="6" fill="#233B6A"/>
  <circle cx="468" cy="166" r="54" fill="#172749"/>
  <path d="M468 112C498.928 112 524 137.072 524 168C524 198.928 498.928 224 468 224C437.072 224 412 198.928 412 168" stroke="#4C9BFF" stroke-width="8" stroke-linecap="round"/>
  <path d="M468 126C491.748 126 511 145.252 511 169" stroke="#5BE6B4" stroke-width="6" stroke-linecap="round"/>
</svg>
