<svg width="480" height="320" viewBox="0 0 480 320" fill="none" xmlns="http://www.w3.org/2000/svg">
  <rect width="480" height="320" rx="28" fill="#0E1528"/>
  <rect x="32" y="32" width="416" height="64" rx="16" fill="#151F3B"/>
  <rect x="48" y="52" width="120" height="16" rx="8" fill="#4C9BFF"/>
  <rect x="192" y="52" width="96" height="12" rx="6" fill="#1F2F57"/>
  <rect x="304" y="52" width="96" height="12" rx="6" fill="#1F2F57"/>
  <g opacity="0.95">
    <rect x="32" y="120" width="128" height="80" rx="16" fill="#151F3B"/>
    <rect x="48" y="136" width="44" height="12" rx="6" fill="#4C9BFF"/>
    <rect x="48" y="156" width="64" height="12" rx="6" fill="#1F2F57"/>
  </g>
  <g opacity="0.85">
    <rect x="176" y="120" width="128" height="80" rx="16" fill="#151F3B"/>
    <rect x="192" y="136" width="44" height="12" rx="6" fill="#5BE6B4"/>
    <rect x="192" y="156" width="64" height="12" rx="6" fill="#1F2F57"/>
  </g>
  <g opacity="0.75">
    <rect x="320" y="120" width="128" height="80" rx="16" fill="#151F3B"/>
    <rect x="336" y="136" width="44" height="12" rx="6" fill="#AA7EFF"/>
    <rect x="336" y="156" width="64" height="12" rx="6" fill="#1F2F57"/>
  </g>
  <g opacity="0.95">
    <rect x="32" y="216" width="128" height="80" rx="16" fill="#151F3B"/>
    <rect x="48" y="232" width="44" height="12" rx="6" fill="#5BE6B4"/>
    <rect x="48" y="252" width="64" height="12" rx="6" fill="#1F2F57"/>
  </g>
  <g opacity="0.85">
    <rect x="176" y="216" width="128" height="80" rx="16" fill="#151F3B"/>
    <rect x="192" y="232" width="44" height="12" rx="6" fill="#AA7EFF"/>
    <rect x="192" y="252" width="64" height="12" rx="6" fill="#1F2F57"/>
  </g>
  <g opacity="0.75">
    <rect x="320" y="216" width="128" height="80" rx="16" fill="#151F3B"/>
    <rect x="336" y="232" width="44" height="12" rx="6" fill="#4C9BFF"/>
    <rect x="336" y="252" width="64" height="12" rx="6" fill="#1F2F57"/>
  </g>
</svg>
