<svg width="480" height="320" viewBox="0 0 480 320" fill="none" xmlns="http://www.w3.org/2000/svg">
  <rect width="480" height="320" rx="28" fill="#0F162B"/>
  <rect x="40" y="40" width="400" height="32" rx="16" fill="#151F3B"/>
  <rect x="60" y="52" width="112" height="12" rx="6" fill="#4C9BFF"/>
  <rect x="40" y="88" width="400" height="192" rx="18" fill="#141F39"/>
  <rect x="60" y="112" width="72" height="12" rx="6" fill="#4C9BFF"/>
  <rect x="60" y="144" width="72" height="12" rx="6" fill="#AA7EFF"/>
  <rect x="60" y="176" width="72" height="12" rx="6" fill="#5BE6B4"/>
  <rect x="60" y="208" width="72" height="12" rx="6" fill="#F2A365"/>
  <rect x="60" y="240" width="72" height="12" rx="6" fill="#FF6F91"/>
  <rect x="152" y="108" width="96" height="20" rx="10" fill="#1C2A4B"/>
  <rect x="152" y="140" width="96" height="20" rx="10" fill="#1C2A4B"/>
  <rect x="152" y="172" width="96" height="20" rx="10" fill="#1C2A4B"/>
  <rect x="152" y="204" width="96" height="20" rx="10" fill="#1C2A4B"/>
  <rect x="152" y="236" width="96" height="20" rx="10" fill="#1C2A4B"/>
  <rect x="264" y="112" width="96" height="12" rx="6" fill="#23345D"/>
  <rect x="264" y="144" width="96" height="12" rx="6" fill="#23345D"/>
  <rect x="264" y="176" width="96" height="12" rx="6" fill="#23345D"/>
  <rect x="264" y="208" width="96" height="12" rx="6" fill="#23345D"/>
  <rect x="264" y="240" width="96" height="12" rx="6" fill="#23345D"/>
  <rect x="376" y="112" width="36" height="12" rx="6" fill="#AA7EFF"/>
  <rect x="376" y="144" width="36" height="12" rx="6" fill="#4C9BFF"/>
  <rect x="376" y="176" width="36" height="12" rx="6" fill="#5BE6B4"/>
  <rect x="376" y="208" width="36" height="12" rx="6" fill="#F2A365"/>
  <rect x="376" y="240" width="36" height="12" rx="6" fill="#FF6F91"/>
</svg>
